<svg width="24" height="24" xmlns="http://www.w3.org/2000/svg" fill="#a3a6a8">

 <g>
  <title>Layer 1</title>
  <path id="svg_1" fill="none" d="m0,0l24,0l0,24l-24,0l0,-24z"/>
  <path id="svg_2" d="m11,11l0,2l3,0l2,0l3,0l0,-2l-3,0l-5,0zm-9,1c0,-2.79 1.64,-5.2 4.01,-6.32l0,-2.16c-3.49,1.24 -6.01,4.57 -6.01,8.48s2.52,7.24 6.01,8.48l0,-2.16c-2.37,-1.12 -4.01,-3.53 -4.01,-6.32zm13,-9c-4.96,0 -9,4.04 -9,9s4.04,9 9,9s9,-4.04 9,-9s-4.04,-9 -9,-9zm0,16c-3.86,0 -7,-3.14 -7,-7s3.14,-7 7,-7s7,3.14 7,7s-3.14,7 -7,7z"/>
 </g>
</svg>